<svg width="101" height="21" viewBox="0 0 101 21" fill="none" xmlns="http://www.w3.org/2000/svg">
<path d="M9.33155 2.36506C9.57342 1.62064 10.6266 1.62064 10.8685 2.36506L12.1862 6.42061C12.2944 6.75353 12.6046 6.97893 12.9546 6.97893H17.2189C18.0016 6.97893 18.3271 7.98054 17.6938 8.44061L14.244 10.9471C13.9608 11.1528 13.8423 11.5175 13.9504 11.8505L15.2682 15.906C15.5101 16.6504 14.658 17.2695 14.0248 16.8094L10.5749 14.3029C10.2917 14.0972 9.90826 14.0972 9.62507 14.3029L6.17521 16.8094C5.54197 17.2695 4.68995 16.6504 4.93182 15.906L6.24955 11.8505C6.35772 11.5175 6.23922 11.1528 5.95603 10.9471L2.50617 8.44062C1.87293 7.98054 2.19837 6.97893 2.9811 6.97893H7.24536C7.59541 6.97893 7.90565 6.75353 8.01382 6.42061L9.33155 2.36506Z" fill="#FFA41C"/>
<path d="M29.5308 2.36506C29.7726 1.62064 30.8258 1.62064 31.0677 2.36506L32.3854 6.42061C32.4936 6.75353 32.8038 6.97893 33.1539 6.97893H37.4181C38.2008 6.97893 38.5263 7.98054 37.8931 8.44061L34.4432 10.9471C34.16 11.1528 34.0415 11.5175 34.1497 11.8505L35.4674 15.906C35.7093 16.6504 34.8573 17.2695 34.224 16.8094L30.7741 14.3029C30.491 14.0972 30.1075 14.0972 29.8243 14.3029L26.3744 16.8094C25.7412 17.2695 24.8892 16.6504 25.131 15.906L26.4488 11.8505C26.5569 11.5175 26.4384 11.1528 26.1552 10.9471L22.7054 8.44062C22.0721 7.98054 22.3976 6.97893 23.1803 6.97893H27.4446C27.7946 6.97893 28.1049 6.75353 28.213 6.42061L29.5308 2.36506Z" fill="#FFA41C"/>
<path d="M49.7319 2.36506C49.9738 1.62064 51.027 1.62064 51.2688 2.36506L52.5866 6.42061C52.6947 6.75353 53.005 6.97893 53.355 6.97893H57.6193C58.402 6.97893 58.7275 7.98054 58.0942 8.44061L54.6444 10.9471C54.3612 11.1528 54.2427 11.5175 54.3508 11.8505L55.6686 15.906C55.9104 16.6504 55.0584 17.2695 54.4252 16.8094L50.9753 14.3029C50.6921 14.0972 50.3087 14.0972 50.0255 14.3029L46.5756 16.8094C45.9424 17.2695 45.0903 16.6504 45.3322 15.906L46.6499 11.8505C46.7581 11.5175 46.6396 11.1528 46.3564 10.9471L42.9066 8.44062C42.2733 7.98054 42.5988 6.97893 43.3815 6.97893H47.6458C47.9958 6.97893 48.306 6.75353 48.4142 6.42061L49.7319 2.36506Z" fill="#FFA41C"/>
<path d="M69.9312 2.36506C70.173 1.62064 71.2262 1.62064 71.4681 2.36506L72.7858 6.42061C72.894 6.75353 73.2042 6.97893 73.5542 6.97893H77.8185C78.6012 6.97893 78.9267 7.98054 78.2934 8.44061L74.8436 10.9471C74.5604 11.1528 74.4419 11.5175 74.5501 11.8505L75.8678 15.906C76.1097 16.6504 75.2576 17.2695 74.6244 16.8094L71.1745 14.3029C70.8913 14.0972 70.5079 14.0972 70.2247 14.3029L66.7748 16.8094C66.1416 17.2695 65.2896 16.6504 65.5314 15.906L66.8492 11.8505C66.9573 11.5175 66.8388 11.1528 66.5556 10.9471L63.1058 8.44062C62.4725 7.98054 62.798 6.97893 63.5807 6.97893H67.845C68.195 6.97893 68.5053 6.75353 68.6134 6.42061L69.9312 2.36506Z" fill="#FFA41C"/>
<path d="M90.1323 2.36506C90.3742 1.62064 91.4274 1.62064 91.6692 2.36506L92.987 6.42061C93.0951 6.75353 93.4054 6.97893 93.7554 6.97893H98.0197C98.8024 6.97893 99.1279 7.98054 98.4946 8.44061L95.0448 10.9471C94.7616 11.1528 94.6431 11.5175 94.7512 11.8505L96.069 15.906C96.3108 16.6504 95.4588 17.2695 94.8256 16.8094L91.3757 14.3029C91.0925 14.0972 90.709 14.0972 90.4259 14.3029L86.976 16.8094C86.3427 17.2695 85.4907 16.6504 85.7326 15.906L87.0503 11.8505C87.1585 11.5175 87.04 11.1528 86.7568 10.9471L83.307 8.44062C82.6737 7.98054 82.9992 6.97893 83.7819 6.97893H88.0461C88.3962 6.97893 88.7064 6.75353 88.8146 6.42061L90.1323 2.36506Z" fill="#FFA41C"/>
</svg>
