<svg width="28" height="28" viewBox="0 0 28 28" fill="none" xmlns="http://www.w3.org/2000/svg">
<path d="M1.94531 6.61133H26.0564V21.3891H1.94531V6.61133Z" fill="white"/>
<path d="M1.94531 6.61133H8.55642V21.3891H1.94531V6.61133ZM19.4453 6.61133H26.0564V21.3891H19.4453V6.61133Z" fill="#D22F27"/>
<path d="M14.0002 17.8891V15.9447V17.8891ZM14.0002 15.9447H16.6447L16.3336 15.1669L17.8891 13.6113V12.4447H16.7224L15.1669 14.0002V11.278L14.0002 10.1113M14.0002 15.9447H11.3558L11.6669 15.1669L10.1113 13.6113V12.4447H11.278L12.8336 14.0002V11.278L14.0002 10.1113" fill="#D22F27"/>
<path d="M14.0002 17.8891V15.9447M14.0002 15.9447H16.6447L16.3336 15.1669L17.8891 13.6113V12.4447H16.7224L15.1669 14.0002V11.278L14.0002 10.1113L12.8336 11.278V14.0002L11.278 12.4447H10.1113V13.6113L11.6669 15.1669L11.3558 15.9447H14.0002Z" stroke="#D22F27" stroke-width="0.777778" stroke-linecap="round" stroke-linejoin="round"/>
<path d="M1.94531 6.61133H26.0564V21.3891H1.94531V6.61133Z" stroke="black" stroke-width="0.777778" stroke-linecap="round" stroke-linejoin="round"/>
</svg>
