<svg width="17" height="14" viewBox="0 0 17 14" fill="none" xmlns="http://www.w3.org/2000/svg">
<path d="M8.3625 6.22925L13.675 0.916748C14.0656 0.565186 14.6516 0.565186 15.0031 0.916748L15.9016 1.81519C16.2531 2.16675 16.2531 2.79175 15.9016 3.14331L12.1125 6.89331L15.9016 10.6824C16.2531 11.0339 16.2531 11.6199 15.9016 12.0105L15.0031 12.8699C14.6516 13.2605 14.0656 13.2605 13.675 12.8699L8.3625 7.55737C8.01094 7.20581 8.01094 6.61987 8.3625 6.22925ZM0.8625 7.55737C0.510938 7.20581 0.510938 6.61987 0.8625 6.22925L6.175 0.916748C6.56563 0.565186 7.15156 0.565186 7.50313 0.916748L8.40156 1.81519C8.75313 2.16675 8.75313 2.79175 8.40156 3.14331L4.6125 6.89331L8.40156 10.6824C8.75313 11.0339 8.75313 11.6199 8.40156 12.0105L7.50313 12.8699C7.15156 13.2605 6.56563 13.2605 6.175 12.8699L0.8625 7.55737Z" fill="white"/>
</svg>
