<svg width="11" height="8" viewBox="0 0 11 8" fill="none" xmlns="http://www.w3.org/2000/svg">
<path d="M1.37461 0.845757H9.62461C9.70814 0.846019 9.79001 0.869056 9.86142 0.912389C9.93283 0.955721 9.99107 1.01771 10.0299 1.09168C10.0687 1.16565 10.0866 1.2488 10.0816 1.33218C10.0767 1.41556 10.0491 1.49601 10.0018 1.56488L5.87682 7.52321C5.70586 7.77026 5.29428 7.77026 5.12286 7.52321L0.997862 1.56488C0.950115 1.49616 0.922115 1.41566 0.916904 1.33214C0.911694 1.24862 0.929471 1.16527 0.968306 1.09115C1.00714 1.01702 1.06555 0.954953 1.13718 0.911691C1.20881 0.868429 1.29093 0.845625 1.37461 0.845757Z" fill="black"/>
</svg>
