<svg width="212" height="38" viewBox="0 0 212 38" fill="none" xmlns="http://www.w3.org/2000/svg">
<g clip-path="url(#clip0_5273_692)">
<path fill-rule="evenodd" clip-rule="evenodd" d="M89.4092 17.9596C88.1182 17.185 86.4376 16.7966 84.8873 16.5384C84.2418 16.4093 83.4672 16.2802 82.8206 16.1511C81.7878 15.8929 79.3314 15.3753 79.3314 13.9541C79.3314 12.7922 80.7527 12.4037 81.9157 12.4037C83.9836 12.4037 85.2758 13.0492 85.663 14.988L91.6062 13.3074C90.9607 9.30307 85.9212 8.01092 82.0448 8.01092C78.0393 8.01092 72.6137 9.30189 72.6137 14.3414C72.6137 18.7342 75.9725 19.7682 79.4605 20.5439C80.3654 20.673 81.2702 20.9312 82.0448 21.1894C83.2079 21.4476 85.4049 21.8349 85.4049 23.3864C85.4049 24.9356 83.466 25.5822 81.9157 25.5822C79.7199 25.5822 78.1695 24.2913 77.9102 22.0943L72.0961 23.6434C72.8707 28.4247 77.652 29.846 82.0448 29.846C86.9552 29.846 92.1226 27.9083 92.1226 22.4815C91.9935 20.673 90.9607 18.9924 89.4092 17.9596ZM0 29.4575H7.36441V1.41992L0 3.489V29.4575ZM22.869 8.14002C20.415 8.14002 17.5713 9.43099 16.2803 11.7571V8.01092L9.69051 9.81946V29.4587H16.4094V18.0887C16.4094 15.5044 17.7004 13.6959 20.2847 13.6959C23.6447 13.6959 23.5156 16.6675 23.5156 19.2518V29.4575H30.2346V16.1487C30.3637 11.1104 28.2958 8.14002 22.869 8.14002ZM61.2425 8.14002C55.0412 8.14002 50.132 12.6619 50.132 18.9924C50.132 26.0998 54.9121 29.9751 61.5019 29.9751C64.8608 29.9751 68.7372 28.8132 71.1924 26.7453L69.3827 21.8349C67.7045 24.0319 64.8608 25.4531 61.8892 25.4531C59.9516 25.4531 58.0128 24.6785 57.3673 22.8688L71.7088 18.8633C71.7088 12.4037 67.7021 8.14002 61.2425 8.14002ZM56.7206 18.476C56.5915 15.5044 58.1419 12.6619 61.2437 12.6619C63.3105 12.6619 64.8608 14.2123 65.2481 16.1511L56.7206 18.476ZM103.623 13.0492L104.785 8.65641H99.8755V2.97144L93.1566 4.91024V22.3524C93.1566 28.0374 94.7069 29.7169 100.392 29.5878C101.166 29.5878 102.46 29.4587 103.363 29.3296L104.785 24.161C103.881 24.4192 102.071 24.6774 101.039 24.2901C100.264 24.0319 99.8755 23.3864 99.8755 22.4815V13.0492H103.623ZM44.7052 8.65641L40.8288 22.4815L36.9523 8.65641H29.8461L36.6941 29.3296H44.447L51.423 8.65641H44.7052ZM171.455 28.4247C168.484 28.4247 166.933 25.4531 166.933 22.6106C166.933 19.7682 168.484 16.7966 171.455 16.7966C173.393 16.7966 174.685 18.0875 175.072 20.0264L176.623 19.6391C176.106 16.7966 174.039 15.3753 171.455 15.3753C167.45 15.3753 165.253 18.7342 165.253 22.6106C165.253 26.4871 167.45 29.846 171.455 29.846C174.298 29.846 176.235 27.9083 176.752 25.0658L175.201 24.6785C174.943 26.6162 173.393 28.4247 171.455 28.4247ZM184.505 15.3753C180.499 15.3753 178.303 18.7342 178.303 22.6106C178.303 26.4871 180.499 29.846 184.505 29.846C188.51 29.846 190.706 26.4871 190.706 22.6106C190.706 18.7342 188.51 15.3753 184.505 15.3753ZM184.505 28.4259C181.533 28.4259 179.983 25.4531 179.983 22.6106C179.983 19.7682 181.533 16.7966 184.505 16.7966C187.476 16.7966 189.027 19.7682 189.027 22.6106C189.027 25.4531 187.476 28.4247 184.505 28.4247V28.4259ZM206.728 15.3753C204.92 15.3753 203.368 16.279 202.593 18.0887C202.076 16.2802 200.526 15.3753 198.846 15.3753C196.908 15.3753 195.358 16.279 194.453 18.2178V15.5044L192.903 15.8917V29.2005H194.582V21.5767C194.582 18.9924 195.616 16.5384 198.459 16.5384C200.396 16.5384 201.172 18.0875 201.172 19.8973V29.0714H202.852V21.4476C202.852 19.1227 203.627 16.5384 206.47 16.5384C208.666 16.5384 209.571 17.8294 209.571 20.0264V29.2005H211.25V20.0264C211.121 17.1839 209.829 15.3753 206.728 15.3753ZM127.913 8.14002C125.458 8.14002 122.615 9.43099 121.323 11.7571V8.01092L114.733 9.81946V29.4587H121.452V18.0887C121.452 15.5044 122.744 13.6959 125.329 13.6959C128.688 13.6959 128.559 16.6675 128.559 19.2518V29.4575H135.277V16.1487C135.407 11.1104 133.34 8.14002 127.913 8.14002ZM105.69 29.4575H112.408V8.01092L105.69 9.94855V29.4575ZM161.247 29.4575H163.444V26.615H161.247V29.4575ZM151.687 11.2395C150.395 9.1728 148.456 8.00975 146.002 8.00975C140.188 8.00975 136.957 12.6608 136.957 18.0875C136.957 23.9016 139.799 28.2944 146.002 28.4235C148.198 28.4235 150.266 27.2617 151.558 25.3229V27.3908C151.558 29.9739 150.395 32.1709 147.552 32.1709C145.743 32.1709 144.192 31.1381 143.676 29.3284L137.604 31.0078C139.025 35.4007 143.289 36.5637 147.294 36.5637C153.237 36.5637 158.146 33.3339 158.146 26.7441V7.88182L151.687 9.68919V11.2407V11.2395ZM147.552 23.3852C144.71 23.3852 143.676 20.93 143.676 18.4748C143.676 15.8905 144.581 13.3063 147.681 13.3063C150.653 13.3063 151.816 15.8905 151.687 18.4748C151.687 21.0591 150.524 23.3852 147.552 23.3852Z" fill="black"/>
<path fill-rule="evenodd" clip-rule="evenodd" d="M105.561 1.93763L112.796 0V6.07226L105.561 8.01107V1.93646V1.93763Z" fill="#F4A41D"/>
</g>
<defs>
<clipPath id="clip0_5273_692">
<rect width="211.25" height="37.5556" fill="white"/>
</clipPath>
</defs>
</svg>
