<svg width="109" height="77" viewBox="0 0 109 77" fill="none" xmlns="http://www.w3.org/2000/svg">
<path d="M16.3901 32.675C10.2652 32.675 5.5015 27.9112 5.5015 21.7864C5.5015 15.8317 10.2652 10.8978 16.3901 10.8978C22.3447 10.8978 27.2786 15.8317 27.2786 21.7864C27.2786 27.9112 22.3447 32.675 16.3901 32.675ZM92.61 32.675C86.4852 32.675 81.7214 27.9112 81.7214 21.7864C81.7214 15.8317 86.4852 10.8978 92.61 10.8978C98.5646 10.8978 103.499 15.8317 103.499 21.7864C103.499 27.9112 98.5646 32.675 92.61 32.675ZM98.0542 38.1192C104.009 38.1192 108.943 43.0531 108.943 49.0078V54.4521C108.943 57.5145 106.391 59.8964 103.499 59.8964H92.2697C91.0788 51.9001 86.315 45.0947 79.3395 41.3518C81.3811 39.4803 84.1033 38.1192 87.1657 38.1192H98.0542ZM54.5 38.1192C43.9517 38.1192 35.445 29.6126 35.445 19.0643C35.445 8.6861 43.9517 0.00928259 54.5 0.00928259C64.8782 0.00928259 73.555 8.6861 73.555 19.0643C73.555 29.6126 64.8782 38.1192 54.5 38.1192ZM67.4302 43.5635C78.3187 43.5635 87.1657 52.4105 87.1657 63.299V68.0628C87.1657 72.6564 83.4227 76.2292 78.9993 76.2292H30.0008C25.4071 76.2292 21.8343 72.6564 21.8343 68.0628V63.299C21.8343 52.4105 30.5112 43.5635 41.3997 43.5635H42.7608C46.3336 45.2649 50.2467 46.2857 54.5 46.2857C58.5832 46.2857 62.4963 45.2649 66.0691 43.5635H67.4302ZM29.4904 41.3518C22.5149 45.0947 17.7511 51.9001 16.5602 59.8964H5.5015C2.43909 59.8964 0.0572205 57.5145 0.0572205 54.4521V49.0078C0.0572205 43.0531 4.82096 38.1192 10.9458 38.1192H21.8343C24.7266 38.1192 27.4488 39.4803 29.4904 41.3518Z" fill="#00A4FF"/>
</svg>
