<svg width="21" height="4" viewBox="0 0 21 4" fill="none" xmlns="http://www.w3.org/2000/svg">
<path d="M9.17105 3.57916H10.7801H12.3289H19.1711C19.5898 3.57916 19.9914 3.4128 20.2875 3.11669C20.5836 2.82058 20.75 2.41897 20.75 2.00021C20.75 1.58145 20.5836 1.17984 20.2875 0.883725C19.9914 0.587615 19.5898 0.421263 19.1711 0.421263H12.3289L10.8716 0.420898L9.17105 0.421285L2.32895 0.421263C1.91018 0.421263 1.50857 0.587615 1.21246 0.883725C0.916353 1.17984 0.75 1.58145 0.75 2.00021C0.75 2.41897 0.916353 2.82058 1.21246 3.11669C1.50857 3.4128 1.91018 3.57916 2.32895 3.57916H9.17105Z" fill="url(#paint0_linear_5273_895)"/>
<defs>
<linearGradient id="paint0_linear_5273_895" x1="0.75" y1="2.00003" x2="20.75" y2="2.00003" gradientUnits="userSpaceOnUse">
<stop stop-color="#7DD0FF"/>
<stop offset="1" stop-color="#00A4FF"/>
</linearGradient>
</defs>
</svg>
