<svg width="21" height="20" viewBox="0 0 21 20" fill="none" xmlns="http://www.w3.org/2000/svg">
<path d="M9.17105 18.4211C9.17105 18.8398 9.33741 19.2414 9.63352 19.5375C9.92963 19.8336 10.3312 20 10.75 20C11.1688 20 11.5704 19.8336 11.8665 19.5375C12.1626 19.2414 12.3289 18.8398 12.3289 18.4211V11.5789H19.1711C19.5898 11.5789 19.9914 11.4126 20.2875 11.1165C20.5836 10.8204 20.75 10.4188 20.75 10C20.75 9.58124 20.5836 9.17963 20.2875 8.88352C19.9914 8.58741 19.5898 8.42105 19.1711 8.42105H12.3289V1.57895C12.3289 1.16018 12.1626 0.758573 11.8665 0.462463C11.5704 0.166353 11.1688 0 10.75 0C10.3312 0 9.92963 0.166353 9.63352 0.462463C9.33741 0.758573 9.17105 1.16018 9.17105 1.57895V8.42105H2.32895C1.91018 8.42105 1.50857 8.58741 1.21246 8.88352C0.916353 9.17963 0.75 9.58124 0.75 10C0.75 10.4188 0.916353 10.8204 1.21246 11.1165C1.50857 11.4126 1.91018 11.5789 2.32895 11.5789H9.17105V18.4211Z" fill="url(#paint0_linear_5273_873)"/>
<defs>
<linearGradient id="paint0_linear_5273_873" x1="0.75" y1="10" x2="20.75" y2="10" gradientUnits="userSpaceOnUse">
<stop stop-color="#7DD0FF"/>
<stop offset="1" stop-color="#00A4FF"/>
</linearGradient>
</defs>
</svg>
