<svg width="57" height="57" viewBox="0 0 57 57" fill="none" xmlns="http://www.w3.org/2000/svg">
<g clip-path="url(#clip0_5273_810)">
<path d="M48.0571 13.5049C49.0831 10.6668 46.3328 7.91652 43.4947 8.94489L8.80782 21.4896C5.96019 22.5204 5.61581 26.4059 8.23544 27.9235L19.3077 34.3336L29.1948 24.4465C29.6427 24.0139 30.2427 23.7745 30.8654 23.7799C31.4881 23.7853 32.0838 24.0351 32.5241 24.4754C32.9645 24.9158 33.2143 25.5115 33.2197 26.1342C33.2251 26.7569 32.9857 27.3568 32.5531 27.8048L22.6659 37.6919L29.0784 48.7641C30.5937 51.3838 34.4792 51.037 35.5099 48.1918L48.0571 13.5049Z" fill="#00A4FF"/>
</g>
<defs>
<clipPath id="clip0_5273_810">
<rect width="57" height="57" fill="white"/>
</clipPath>
</defs>
</svg>
